<svg width="40" height="49" viewBox="0 0 40 49" fill="none" xmlns="http://www.w3.org/2000/svg">
<path d="M28.6653 0.73077C26.4395 0.987802 23.2895 2.95108 21.7255 5.05108C20.8231 6.25421 20.2926 7.40265 19.8333 9.13077L19.6036 9.99483L19.6145 10.9136C19.6255 11.4167 19.6528 11.887 19.6801 11.9636C19.7512 12.1441 19.888 12.1714 20.8505 12.1769C21.6489 12.1823 21.6981 12.1769 22.3817 11.9745C24.2083 11.4441 25.5481 10.6456 26.4997 9.51358C26.7294 9.23468 27.0739 8.8628 27.2544 8.67686C27.8559 8.08624 28.627 6.77374 29.0536 5.63624C29.4801 4.49327 29.6715 3.43233 29.7262 1.92296L29.759 0.954988L29.6169 0.812801C29.4583 0.654207 29.3708 0.648739 28.6653 0.73077Z" fill="#717171"/>
<path d="M28.1567 12.0347C27.0739 12.0894 24.1591 12.8987 22.0645 13.719C20.7958 14.2167 20.7958 14.2167 20.5442 14.2605C20.1067 14.3315 19.0348 14.0198 17.1919 13.2761C16.213 12.8878 15.2067 12.5925 13.7192 12.2534C13.0958 12.1167 12.0622 12.1003 11.6137 12.2261C11.4333 12.2753 10.8645 12.3901 10.3505 12.4776C9.24577 12.6745 8.62233 12.8659 7.79108 13.2761C5.28093 14.5011 3.56921 16.262 2.21296 19.0183C1.6114 20.2323 1.16843 21.419 0.840303 22.6823C0.353584 24.5581 0.342646 28.1565 0.818428 30.3386C0.873115 30.6065 0.922334 30.9237 0.922334 31.0495C0.922334 31.312 0.971553 31.5089 1.43093 33.319C1.85749 34.9925 1.81374 34.8558 2.62858 36.9011C3.77155 39.7722 4.13249 40.4065 6.46765 43.6276C7.42468 44.9456 7.9114 45.5472 8.61687 46.2636C9.35515 47.0183 9.95124 47.4558 10.7934 47.8714C11.745 48.3362 12.1606 48.4401 13.0356 48.4347C14.1567 48.4347 15.0591 48.205 16.7762 47.4831C17.8591 47.0292 17.9301 47.0073 19.8989 46.6026C20.4895 46.4769 21.0364 46.4878 21.8676 46.6245C22.152 46.6683 22.5786 46.7339 22.8083 46.7667C23.2731 46.8323 23.7434 46.9855 24.9575 47.4722C26.4231 48.0628 27.4567 48.3253 28.5395 48.3909C30.1145 48.4894 31.6348 47.7894 33.2591 46.2308C34.9161 44.6284 36.4637 42.4355 38.0278 39.4769C38.4489 38.6784 39.1216 37.0433 39.2364 36.5511C39.2856 36.3542 39.3676 36.1081 39.4278 36.0097C39.4825 35.9112 39.5317 35.7745 39.5317 35.7144C39.5317 35.5175 39.1325 35.2058 38.427 34.8503C37.0981 34.1667 35.7911 32.9964 34.9106 31.6784C34.2817 30.7323 33.6473 29.3159 33.4887 28.4792C33.2208 27.1011 33.1442 25.5917 33.2973 24.5417C33.3356 24.2683 33.4723 23.694 33.6036 23.2565C34.1669 21.3589 34.5551 20.5987 35.4356 19.6581C35.7036 19.3792 35.9223 19.1222 35.9223 19.1003C35.9223 19.0073 37.2622 17.8862 37.5903 17.7058C37.7708 17.6019 38.0005 17.4433 38.0989 17.3448C38.3997 17.0495 38.3559 16.9347 37.6012 16.0487C36.5895 14.862 35.3153 13.8886 33.8169 13.1612C32.8817 12.7073 32.2364 12.4831 31.3341 12.2972C30.4098 12.1003 29.0317 11.9855 28.1567 12.0347Z" fill="#717171"/>
</svg>
